<?xml version="1.0" encoding="UTF-8" standalone="no"?>
<!-- Created with Inkscape (http://www.inkscape.org/) -->

<svg
   width="500mm"
   height="500mm"
   viewBox="0 0 500 500.00001"
   version="1.1"
   id="svg5"
   inkscape:version="1.1.2 (b8e25be833, 2022-02-05)"
   sodipodi:docname="dessin-3 - Copie - Copie.svg"
   xmlns:inkscape="http://www.inkscape.org/namespaces/inkscape"
   xmlns:sodipodi="http://sodipodi.sourceforge.net/DTD/sodipodi-0.dtd"
   xmlns="http://www.w3.org/2000/svg"
   xmlns:svg="http://www.w3.org/2000/svg">
  <sodipodi:namedview
     id="namedview7"
     pagecolor="#ffffff"
     bordercolor="#666666"
     borderopacity="1.0"
     inkscape:pageshadow="2"
     inkscape:pageopacity="0.0"
     inkscape:pagecheckerboard="0"
     inkscape:document-units="mm"
     showgrid="false"
     inkscape:zoom="0.23117634"
     inkscape:cx="1087.9141"
     inkscape:cy="880.2804"
     inkscape:window-width="1366"
     inkscape:window-height="706"
     inkscape:window-x="-8"
     inkscape:window-y="-8"
     inkscape:window-maximized="1"
     inkscape:current-layer="layer1" />
  <defs
     id="defs2" />
  <g
     inkscape:label="Calque 1"
     inkscape:groupmode="layer"
     id="layer1"
     transform="translate(-597.33813,-324.9845)">
    <rect
       style="fill:#000000;stroke-width:4.3666;stroke-linecap:square;paint-order:stroke fill markers"
       id="rect55"
       width="500"
       height="500"
       x="597.33813"
       y="324.9845" />
    <g
       id="g37"
       transform="translate(5.2831198,3.6795521)">
      <rect
         style="fill:#e78625;fill-opacity:1;stroke:none;stroke-width:10.3425;stroke-linecap:square;paint-order:stroke fill markers"
         id="rect1838"
         width="245.73782"
         height="17.5527"
         x="544.58026"
         y="738.04364"
         transform="rotate(-12.939705)" />
      <path
         d="m 658.2737,644.42009 29.95676,-6.88287 2.57401,11.20304 -18.58964,4.27114 2.51744,10.95681 18.58963,-4.27115 2.5363,11.03889 -18.58964,4.27115 6.24174,27.16631 -11.36713,2.61171 z"
         style="font-weight:bold;font-size:68.584px;line-height:1.25;font-family:'Century Gothic';-inkscape-font-specification:'Century Gothic Bold';fill:#fae4bb;fill-opacity:1;stroke:none;stroke-width:2.15584"
         id="path8213" />
      <path
         d="m 751.06085,666.56357 -35.98915,8.26888 q 1.87343,4.5811 5.88898,6.6395 4.04712,2.00795 9.29987,0.80108 6.27854,-1.44257 9.78371,-6.87063 l 10.45688,2.26335 q -2.37885,5.81733 -6.74699,9.36994 -4.37756,3.51157 -11.14866,5.0673 -10.50541,2.41372 -18.63036,-2.67518 -8.1343,-5.12996 -10.42545,-15.10189 -2.34772,-10.21814 2.67185,-18.45675 5.05116,-8.28904 14.98207,-10.57078 10.5465,-2.42316 18.70908,2.8299 8.15323,5.21202 10.69896,16.29194 z m -13.27119,-6.23945 q -1.96606,-3.47976 -5.78631,-5.06461 -3.7794,-1.59422 -8.08825,-0.60421 -4.67819,1.07486 -7.60388,4.51207 -1.83887,2.15061 -2.77435,6.72907 z"
         style="font-weight:bold;font-size:68.584px;line-height:1.25;font-family:'Century Gothic';-inkscape-font-specification:'Century Gothic Bold';fill:#fae4bb;fill-opacity:1;stroke:none;stroke-width:2.15584"
         id="path8215" />
      <path
         d="m 752.49736,639.31803 9.60252,-2.20627 1.29172,5.62202 q 0.79573,-3.68228 2.98513,-5.99984 2.18918,-2.3175 5.26691,-3.02465 2.17501,-0.49973 4.8191,0.10242 l -1.27242,10.44507 q -2.19598,-0.53232 -3.4681,-0.24004 -2.58533,0.594 -3.65551,4.20973 -1.02917,3.6063 1.12055,12.96267 l 0.54167,2.16531 4.14858,18.05617 -11.12089,2.55512 z"
         style="font-weight:bold;font-size:68.584px;line-height:1.25;font-family:'Century Gothic';-inkscape-font-specification:'Century Gothic Bold';fill:#fae4bb;fill-opacity:1;stroke:none;stroke-width:2.15584"
         id="path8217" />
      <path
         d="m 810.5404,607.83677 11.16205,-2.56458 14.21833,61.88338 -11.16205,2.5646 -1.08429,-4.71923 q -2.5664,3.8731 -5.56972,6.03204 -2.97183,2.10851 -6.82928,2.9948 -8.65872,1.98943 -16.51529,-3.24755 -7.86591,-5.27803 -10.15706,-15.24995 -2.37602,-10.34126 2.22052,-18.35306 4.59638,-8.01174 13.33718,-10.02003 4.0217,-0.92402 7.89969,-0.21653 3.87808,0.7075 7.57136,3.05594 z m -5.70543,29.13365 q -5.21166,1.19743 -7.8103,5.68277 -2.60791,4.44427 -1.2879,10.18941 1.32942,5.78617 5.67556,8.71909 4.38714,2.92347 9.51688,1.74486 5.29358,-1.21625 7.94258,-5.66995 2.63963,-4.49474 1.27249,-10.44508 -1.33886,-5.82723 -5.6568,-8.637 -4.31786,-2.80979 -9.65251,-1.5841 z"
         style="font-weight:bold;font-size:68.584px;line-height:1.25;font-family:'Century Gothic';-inkscape-font-specification:'Century Gothic Bold';fill:#fae4bb;fill-opacity:1;stroke:none;stroke-width:2.15584"
         id="path8219" />
      <path
         d="m 838.3951,600.22718 q 2.95466,-0.67885 5.53788,0.97419 2.62421,1.64362 3.32192,4.68033 0.68829,2.99569 -0.91435,5.61047 -1.61198,2.57373 -4.52563,3.24316 -2.99566,0.68829 -5.61988,-0.95534 -2.59256,-1.69408 -3.29971,-4.77184 -0.67886,-2.95466 0.93313,-5.52838 1.61207,-2.57374 4.56664,-3.25259 z m -1.39805,19.6762 11.24413,-2.58346 10.25832,44.64796 -11.24413,2.58346 z"
         style="font-weight:bold;font-size:68.584px;line-height:1.25;font-family:'Century Gothic';-inkscape-font-specification:'Century Gothic Bold';fill:#fae4bb;fill-opacity:1;stroke:none;stroke-width:2.15584"
         id="path8221" />
      <path
         d="m 858.37718,614.99108 11.16213,-2.56461 1.04658,4.55507 q 3.08094,-4.07772 5.87582,-6.01596 2.82652,-1.98871 6.06842,-2.73357 6.64795,-1.52743 12.35047,2.04428 4.80361,3.04383 6.57618,10.75874 l 6.77916,29.50541 -11.0798,2.54569 -4.49744,-19.57451 q -1.83858,-8.00218 -3.18073,-10.4588 -1.30108,-2.46605 -3.41783,-3.4054 -2.08517,-0.98981 -4.71143,-0.38641 -3.40613,0.78259 -5.34038,3.64638 -1.90252,2.81329 -1.92232,7.05174 -0.0113,2.20599 1.59132,9.18225 l 4.1203,17.93305 -11.16213,2.56461 z"
         style="font-weight:bold;font-size:68.584px;line-height:1.25;font-family:'Century Gothic';-inkscape-font-specification:'Century Gothic Bold';fill:#fae4bb;fill-opacity:1;stroke:none;stroke-width:2.15584"
         id="path8223" />
      <path
         d="m 941.35424,595.92627 11.16206,-2.5646 10.25831,44.64796 -11.16205,2.5646 -1.08428,-4.71922 q -2.56633,3.87306 -5.5698,6.03205 -2.97183,2.1085 -6.8293,2.99479 -8.6587,1.98943 -16.5152,-3.24756 -7.866,-5.27801 -10.15715,-15.24993 -2.376,-10.34126 2.22046,-18.35304 4.59646,-8.01177 13.33734,-10.02007 4.02162,-0.92401 7.89969,-0.21653 3.87798,0.70751 7.57135,3.05595 z m -9.6656,11.89824 q -5.21166,1.19743 -7.81014,5.68274 -2.60799,4.44428 -1.28799,10.18943 1.32944,5.78616 5.67558,8.71909 4.38721,2.92345 9.51671,1.74491 5.2939,-1.21633 7.94289,-5.67004 2.63949,-4.49471 1.27234,-10.44504 -1.33887,-5.82722 -5.65664,-8.63704 -4.31784,-2.8098 -9.65275,-1.58405 z"
         style="font-weight:bold;font-size:68.584px;line-height:1.25;font-family:'Century Gothic';-inkscape-font-specification:'Century Gothic Bold';fill:#fae4bb;fill-opacity:1;stroke:none;stroke-width:2.15584"
         id="path8225" />
      <path
         d="m 963.31646,590.88022 11.16196,-2.56457 1.04658,4.55507 q 3.0811,-4.07775 5.87597,-6.016 2.82646,-1.98868 6.06842,-2.73356 6.64795,-1.52744 12.3504,2.0443 4.80371,3.04381 6.57631,10.75873 l 6.7791,29.5054 -11.0799,2.54571 -4.4974,-19.57452 q -1.83859,-8.00217 -3.18067,-10.4588 -1.30106,-2.46607 -3.41781,-3.40542 -2.08519,-0.9898 -4.71152,-0.38638 -3.40612,0.78259 -5.3403,3.64635 -1.9026,2.81332 -1.9224,7.05177 -0.0113,2.20601 1.59124,9.18226 l 4.1203,17.93305 -11.16196,2.56458 z"
         style="font-weight:bold;font-size:68.584px;line-height:1.25;font-family:'Century Gothic';-inkscape-font-specification:'Century Gothic Bold';fill:#fae4bb;fill-opacity:1;stroke:none;stroke-width:2.15584"
         id="path8227" />
      <path
         d="m 1042.5212,554.53687 11.1619,-2.56458 14.2184,61.88339 -11.162,2.56458 -1.0843,-4.71922 q -2.5664,3.87308 -5.5698,6.03206 -2.9718,2.1085 -6.8293,2.99478 -8.6587,1.98943 -16.5152,-3.24756 -7.866,-5.27801 -10.1571,-15.24994 -2.376,-10.34125 2.2205,-18.35304 4.5965,-8.01177 13.3373,-10.02006 4.0216,-0.924 7.8996,-0.21653 3.878,0.70752 7.5714,3.05594 z m -5.7055,29.13365 q -5.2117,1.19743 -7.8103,5.68276 -2.6079,4.44427 -1.2879,10.18941 1.3295,5.78618 5.6755,8.7191 4.3872,2.92347 9.5169,1.74488 5.2937,-1.21627 7.9426,-5.66996 2.6395,-4.49474 1.2724,-10.44506 -1.3389,-5.82722 -5.6567,-8.63703 -4.3178,-2.80981 -9.6525,-1.5841 z"
         style="font-weight:bold;font-size:68.584px;line-height:1.25;font-family:'Century Gothic';-inkscape-font-specification:'Century Gothic Bold';fill:#fae4bb;fill-opacity:1;stroke:none;stroke-width:2.15584"
         id="path8229" />
      <path
         d="m 616.20853,461.33704 79.54695,-18.27671 6.835,29.74841 -49.36279,11.34159 6.68478,29.09458 49.36277,-11.34159 6.73485,29.31251 -49.36278,11.3416 16.57423,72.13712 -30.18417,6.93512 z"
         style="font-weight:bold;font-size:107.322px;line-height:1.25;font-family:'Century Gothic';-inkscape-font-specification:'Century Gothic Bold';fill:#fae4bb;fill-opacity:1;stroke:none;stroke-width:5.72462"
         id="path8179" />
      <path
         d="m 726.74527,500.15686 15.02631,-3.45245 2.02131,8.7975 q 1.24525,-5.76213 4.67108,-9.38868 3.42586,-3.62654 8.24199,-4.7331 3.40346,-0.78197 7.54104,0.16033 l -1.99108,16.3447 q -3.43642,-0.83297 -5.42716,-0.37558 -4.04559,0.92952 -5.72017,6.58748 -1.61039,5.64321 1.75355,20.28429 l 0.84608,3.38869 6.49182,28.25475 -17.40237,3.99838 z"
         style="font-weight:bold;font-size:107.322px;line-height:1.25;font-family:'Century Gothic';-inkscape-font-specification:'Century Gothic Bold';fill:#fae4bb;fill-opacity:1;stroke:none;stroke-width:3.37353"
         id="path8181" />
      <path
         d="m 824.54522,477.68635 17.46656,-4.01312 16.05247,69.86628 -17.46656,4.01312 -1.69671,-7.38477 q -4.01603,6.06072 -8.71568,9.43908 -4.65038,3.29945 -10.68664,4.68635 -13.54942,3.11311 -25.84347,-5.08187 -12.30888,-8.25917 -15.89413,-23.86349 -3.71804,-16.18226 3.47463,-28.7193 7.19268,-12.53704 20.87056,-15.67967 6.29312,-1.44591 12.3615,-0.33878 6.06848,1.10711 11.84797,4.78199 z m -15.12484,18.61864 q -8.15546,1.8738 -12.22154,8.8925 -4.08107,6.95452 -2.0155,15.94468 2.08034,9.05436 8.88134,13.64384 6.86503,4.57477 14.89204,2.73048 8.28378,-1.90328 12.42896,-8.87256 4.13043,-7.03346 1.99108,-16.3447 -2.09508,-9.11857 -8.85175,-13.51542 -6.75666,-4.39684 -15.10463,-2.47882 z"
         style="font-weight:bold;font-size:107.322px;line-height:1.25;font-family:'Century Gothic';-inkscape-font-specification:'Century Gothic Bold';fill:#fae4bb;fill-opacity:1;stroke:none;stroke-width:3.37353"
         id="path8183" />
      <path
         d="m 859.73518,469.60109 17.46656,-4.01311 1.63769,7.1279 q 4.82118,-6.38093 9.19477,-9.41395 4.42296,-3.112 9.49603,-4.27758 10.4029,-2.39017 19.3265,3.19894 7.51685,4.76302 10.29063,16.8355 l 10.6082,46.17084 -17.33816,3.98362 -7.03772,-30.63073 q -2.87705,-12.52198 -4.97725,-16.36618 -2.03592,-3.85896 -5.34828,-5.32888 -3.26292,-1.54889 -7.37271,-0.60463 -5.32992,1.22461 -8.35655,5.70589 -2.97712,4.40232 -3.00827,11.03479 -0.0181,3.45204 2.49004,14.36865 l 6.44755,28.06211 -17.46656,4.01312 z"
         style="font-weight:bold;font-size:107.322px;line-height:1.25;font-family:'Century Gothic';-inkscape-font-specification:'Century Gothic Bold';fill:#fae4bb;fill-opacity:1;stroke:none;stroke-width:3.37353"
         id="path8185" />
      <path
         d="m 933.08577,451.35225 58.87656,-13.52748 -15.04903,86.81302 30.9911,-7.12051 4.167,18.13622 -59.47203,13.66429 15.42759,-86.70174 -30.73095,7.06075 z"
         style="font-weight:bold;font-size:107.322px;line-height:1.25;font-family:'Century Gothic';-inkscape-font-specification:'Century Gothic Bold';fill:#fae4bb;fill-opacity:1;stroke:none;stroke-width:3.47535"
         id="path8187"
         sodipodi:nodetypes="ccccccccc" />
    </g>
  </g>
</svg>
